<svg viewBox="0 0 32 32" xmlns="http://www.w3.org/2000/svg" height="50" width="50"><g data-name="slack collaboration sharing synergy"><path d="M12 16a3 3 0 0 0 0-6H6a3 3 0 0 0 0 6Zm-7-3a1 1 0 0 1 1-1h6a1 1 0 0 1 0 2H6a1 1 0 0 1-1-1ZM26 16a1 1 0 0 0 0 2 1 1 0 0 1 0 2h-6a1 1 0 0 1 0-2h2a1 1 0 0 0 0-2h-2a3 3 0 0 0 0 6h6a3 3 0 0 0 0-6ZM13 17a3 3 0 0 0-3 3v6a3 3 0 0 0 6 0v-6a3 3 0 0 0-3-3Zm1 9a1 1 0 0 1-2 0v-6a1 1 0 0 1 2 0ZM22 12V6a3 3 0 0 0-6 0v6a3 3 0 0 0 6 0Zm-4 0V6a1 1 0 0 1 2 0v6a1 1 0 0 1-2 0ZM28 12.5a2.5 2.5 0 0 0-5 0V15h2.5a2.5 2.5 0 0 0 2.5-2.5Zm-3 0a.5.5 0 1 1 .5.5H25ZM19.5 23H17v2.5a2.5 2.5 0 1 0 2.5-2.5Zm0 3a.5.5 0 0 1-.5-.5V25h.5a.5.5 0 0 1 0 1ZM4 19.5a2.5 2.5 0 0 0 5 0V17H6.5A2.5 2.5 0 0 0 4 19.5Zm3 0a.5.5 0 1 1-.5-.5H7ZM12.5 9H15V6.5A2.5 2.5 0 1 0 12.5 9Zm0-3a.5.5 0 0 1 .5.5V7h-.5a.5.5 0 0 1 0-1Z" fill="#2771d0" class="fill-000000"></path></g></svg>