<!DOCTYPE svg PUBLIC "-//W3C//DTD SVG 1.1//EN" "http://www.w3.org/Graphics/SVG/1.1/DTD/svg11.dtd">
<!-- Uploaded to: SVG Repo, www.svgrepo.com, Transformed by: SVG Repo Mixer Tools -->
<svg fill="#2771d0" width="70px" height="70px" viewBox="0 0 24 24" id="database-alert" data-name="Line Color" xmlns="http://www.w3.org/2000/svg" class="icon line-color">
<g id="SVGRepo_bgCarrier" stroke-width="0"/>
<g id="SVGRepo_tracerCarrier" stroke-linecap="round" stroke-linejoin="round"/>
<g id="SVGRepo_iconCarrier">
<line id="secondary-upstroke" x1="6.95" y1="20.5" x2="7.05" y2="20.5" style="fill: none; stroke-linecap: round; stroke-linejoin: round; stroke-width: 2; stroke: #06F3FF;"/>
<line id="secondary" x1="7" y1="16" x2="7" y2="13" style="fill: none; stroke-linecap: round; stroke-linejoin: round; stroke-width: 2; stroke: #06F3FF;"/>
<path id="primary" d="M12,15h8a1,1,0,0,0,1-1V10a1,1,0,0,0-1-1H4a1,1,0,0,0-1,1v2" style="fill: none; stroke: #2771d0; stroke-linecap: round; stroke-linejoin: round; stroke-width: 2;"/>
<path id="primary-2" data-name="primary" d="M12,21h8a1,1,0,0,0,1-1V16a1,1,0,0,0-1-1H12" style="fill: none; stroke: #2771d0; stroke-linecap: round; stroke-linejoin: round; stroke-width: 2;"/>
<rect id="primary-3" data-name="primary" x="9" y="-3" width="6" height="18" rx="1" transform="translate(18 -6) rotate(90)" style="fill: none; stroke: #2771d0; stroke-linecap: round; stroke-linejoin: round; stroke-width: 2;"/>
</g>
</svg>